<?xml version="1.0" ?><svg style="color:#b6bbbc;opacity:0.6;" fill="color:#b6bbbc;" id="Layer_1"  version="1.1" viewBox="0 0 48 48" xml:space="preserve" xmlns="http://www.w3.org/2000/svg" xmlns:xlink="http://www.w3.org/1999/xlink"><path  d="M43,16H5c-1.7,0-3,1.3-3,3v24c0,1.7,1.3,3,3,3h38c1.7,0,3-1.3,3-3V19C46,17.3,44.7,16,43,16z M44,43.1L28.8,33L44,19.2  L44,43.1C44,43,44,43.1,44,43.1z M4,43V19.3L19.1,33L4,43C4,43.1,4,43,4,43z M24.6,34c-0.4,0.4-1,0.4-1.4,0L5.5,18h36.8L24.6,34z   M20.7,34.4l1.3,1.2c0.6,0.5,1.3,0.8,2,0.8c0.7,0,1.4-0.3,2-0.8l1.3-1.2L41.7,44H6.3L20.7,34.4z"/></svg>