<svg id="Capa_1" enable-background="new 0 0 510.291 510.291" height="512" viewBox="0 0 510.291 510.291" width="512" xmlns="http://www.w3.org/2000/svg"><g><path style="fill:#676767;" d="m183.12 85.236c6.517-4.778 6.329-4.414 52.15-30.33.1-.05.19-.11.29-.16-24.03-33.81-63.26-54.6-105.79-54.6-71.55 0-129.77 58.22-129.77 129.77v375.23c0 2.76 2.24 5 5 5h50c2.76 0 5-2.24 5-5v-375.23c0-38.63 31.56-70.03 70.25-69.77 20.74.14 39.87 9.68 52.87 25.09z"/><path style="fill:#676767;" d="m282.222 351.743c8.171-1.363 13.691-9.092 12.329-17.263l-2.317-13.894c-1.362-8.171-9.091-13.69-17.263-12.329-8.171 1.363-13.691 9.092-12.329 17.263l2.317 13.894c1.362 8.171 9.09 13.691 17.263 12.329z"/><path style="fill:#676767;" d="m358.3 310.066c7.224-4.054 9.794-13.198 5.739-20.422l-6.485-11.555c-4.055-7.225-13.198-9.795-20.422-5.739-7.224 4.054-9.794 13.198-5.739 20.422l6.485 11.555c4.058 7.231 13.207 9.789 20.422 5.739z"/><path style="fill:#676767;" d="m433.506 266.837c5.42-6.265 4.735-15.738-1.53-21.158l-10.653-9.216c-6.266-5.419-15.737-4.734-21.158 1.53-5.42 6.265-4.735 15.738 1.53 21.158l10.653 9.216c6.267 5.42 15.738 4.734 21.158-1.53z"/><path style="fill:#676767;" d="m298.648 409.607c-1.195-8.197-8.808-13.872-17.007-12.68-8.198 1.195-13.875 8.809-12.68 17.007l2.1 14.408c1.197 8.207 8.819 13.874 17.007 12.68 8.198-1.195 13.875-8.809 12.68-17.007z"/><path style="fill:#676767;" d="m364.473 368.682c-3.105-7.681-11.848-11.39-19.528-8.286-7.681 3.104-11.39 11.848-8.286 19.528l5.135 12.704c3.106 7.684 11.851 11.389 19.528 8.286 7.681-3.104 11.39-11.848 8.286-19.528z"/><path style="fill:#676767;" d="m429.369 327.892c-4.939-6.651-14.334-8.039-20.985-3.1s-8.039 14.334-3.1 20.985l8.169 11.001c4.939 6.652 14.336 8.038 20.985 3.1 6.651-4.939 8.039-14.334 3.1-20.985z"/><path style="fill:#676767;" d="m504.871 297.122-11.204-9.298c-6.375-5.291-15.832-4.411-21.123 1.963-5.291 6.375-4.411 15.832 1.963 21.123l11.204 9.298c6.376 5.291 15.833 4.411 21.123-1.963 5.291-6.376 4.411-15.832-1.963-21.123z"/><path style="fill:#676767;" d="m185.78 211.116 167.01-94.47-4.77-8.44c-19.466-34.441-63.211-46.845-97.98-27.19-45.085 25.494-45.802 25.513-52.07 30.65-26.008 21.244-34.817 59.476-16.97 91z"/><path style="fill:#676767;" d="m412.64 150.066-6.62-11.7c-4.098-7.281-13.378-9.796-20.58-5.72-8.672 4.894-198.697 112.377-202.73 114.66-7.182 4.049-9.835 13.273-5.71 20.58l6.62 11.71c5.532 9.779 17.922 13.215 27.71 7.69l193.62-109.51c9.768-5.535 13.229-17.918 7.69-27.71z"/></g></svg>