<?xml version="1.0" ?><!DOCTYPE svg  PUBLIC '-//W3C//DTD SVG 1.1//EN'  'http://www.w3.org/Graphics/SVG/1.1/DTD/svg11.dtd'><svg height="100%" style="fill-rule:evenodd;clip-rule:evenodd;stroke-linejoin:round;stroke-miterlimit:1.41421;" version="1.1" viewBox="0 0 128 128" width="100%" xml:space="preserve" xmlns="http://www.w3.org/2000/svg" xmlns:serif="http://www.serif.com/" xmlns:xlink="http://www.w3.org/1999/xlink"><rect height="128" id="User" style="fill:none;" width="128" x="0.195" y="0"/><path style="fill:#45e6c1;" d="M64.468,70c25.272,0.141 49.078,16.765 57.225,42.976c0.277,0.89 0.678,1.814 0.4,2.652c-0.641,1.94 -3.325,1.48 -4.164,-1.284c-5.643,-18.308 -20.182,-34.001 -39.198,-38.663c-16.857,-4.132 -35.728,-0.76 -48.684,10.434c-8.523,7.364 -14.879,17.463 -17.852,28.145c0,0 -1.434,2.777 -3.262,1.292c-1.86,-1.512 0.12,-4.953 1.42,-8.146c8.531,-20.954 28.404,-36.983 52.796,-37.398c0.44,-0.006 0.879,-0.008 1.319,-0.008Zm-0.105,-57.999c11.878,0.113 23.093,9.225 25.366,21.081c2.22,11.578 -4.524,24.263 -15.417,28.873c-12.067,5.107 -27.646,-0.628 -33.482,-12.543c-6.026,-12.304 -0.33,-29.044 12.38,-34.981c3.475,-1.623 7.298,-2.443 11.153,-2.43Zm-0.311,3.999c-9.96,0.095 -19.311,7.63 -21.382,17.433c-2.089,9.89 3.609,20.878 12.966,24.838c12.173,5.152 28.309,-3.274 30.325,-17.057c1.778,-12.152 -7.993,-24.83 -21.198,-25.207c-0.237,-0.005 -0.474,-0.007 -0.711,-0.007Z"/></svg>